<mxfile host="app.diagrams.net" modified="2023-06-02T23:09:56.009Z" agent="Mozilla/5.0 (Windows NT 10.0; Win64; x64) AppleWebKit/537.36 (KHTML, like Gecko) Chrome/112.0.0.0 Safari/537.36 OPR/98.0.0.0" version="21.3.7" etag="j-ppZ6LQWL_d74lCZdgh" type="github">
  <diagram name="PÃ¡gina-1" id="Swz5k-gyCjwDBfeab66-">
    <mxGraphModel>
      <root>
        <mxCell id="0" />
        <mxCell id="1" parent="0" />
      </root>
    </mxGraphModel>
  </diagram>
</mxfile>
